<svg xmlns="http://www.w3.org/2000/svg" width="111.686" height="48.887" viewBox="0 0 111.686 48.887">
  <g id="Swach_Bharat" data-name="Swach Bharat" transform="translate(-5.745 -18.193)">
    <path id="Path_104845" data-name="Path 104845" d="M81.1,62.1h8.592v1.585H81.1Z" transform="translate(-43.925 -25.593)" fill="#faa61a" fill-rule="evenodd"/>
    <path id="Path_104846" data-name="Path 104846" d="M81.1,69h8.592l-.417,1.543H81.559Z" transform="translate(-43.925 -29.615)" fill="#0db14b" fill-rule="evenodd"/>
    <path id="Path_104847" data-name="Path 104847" d="M29.38,72.52a1.54,1.54,0,0,1-.542.083,1.849,1.849,0,0,1-.792-.125v-1.96h4.672v1.5a6.933,6.933,0,0,0-.792-.792A1.735,1.735,0,0,0,29.38,72.52Zm48.05-1.96v.876h-1.46c-1.043,0-1.5.584-1.5,1.168,0,.709.375,1.335,1.46,2.878l.417-.292a3.43,3.43,0,0,1-.918-1.835c0-.584.209-1,.918-1h1.126v2.5l1,.709V70.559h1.084l-.542-.918H65.083l.542.918h.792v2.085h-1.71l.042-1.21c0-.667-.375-1.835-1.543-1.835a1.106,1.106,0,0,0-1.168,1.126c0,.626.5,1.251,1.752,1.543l-.042.375h-.542a.329.329,0,0,0-.334.334c0,.375,1.084,1.418,1.418,1.418.25,0,.292-.209.334-.792h1.794V74.9l1,.709V70.6h1.335v4.3l.959.709V70.6h2.211v1.543c0,.125-.042.209-.125.209-.209,0-.459-.292-.751-.292-.167,0-.334.25-.334.375,0,.167.209.459.584.959l1.835,2.294.375-.375a14.312,14.312,0,0,1-1.418-1.627A1.53,1.53,0,0,0,72.8,72.6v-1.96h4.63Zm-13.514.334-.042.876c-.626-.125-.918-.417-.918-.876,0-.334.292-.709.542-.709.167.042.417.209.417.709Zm-21.439.292v-.626H44.02l-.542-.918H25l.542.918h1.543v1.627a.183.183,0,0,1-.042.125c-.125,0-.375-.334-.584-.334a.444.444,0,0,0-.417.375A2.583,2.583,0,0,0,26.5,73.4l1.752,2.419.417-.417c-.542-.626-.959-1.043-1.418-1.668A3.479,3.479,0,0,0,28,72.937a1.737,1.737,0,0,0,.959.542,4.818,4.818,0,0,0,.667-.083A2.106,2.106,0,0,0,31.3,74.438a2.435,2.435,0,0,0,1.46-.626v1.043l.959.709V70.559h7.841V71.1a1.166,1.166,0,0,0-1.043,1.168c0,.584.459,1.126,1.335,1.627a2.8,2.8,0,0,1-1.96.918c-.5,0-.667-.125-.667-.417,0-.334.334-.626,1.251-.626l-.417-1a1.514,1.514,0,0,0-.918.167c-.042-.042-.125-.083-.167-.125l-.167-.25v-.083a.575.575,0,0,1,.626-.542,3.7,3.7,0,0,1,.626.083L39.6,71.06a1.427,1.427,0,0,0-.459-.042,1.087,1.087,0,0,0-1.126.751l-.167-.334H34.51l.542.918h.626a1.137,1.137,0,0,0-.167.667,1.908,1.908,0,0,0,1.71,1.627,2.471,2.471,0,0,0,1.251-.542,2.313,2.313,0,0,0,2,1.46,3.088,3.088,0,0,0,2.878-2.878,2.348,2.348,0,0,0-.876-1.5ZM38.1,72.353a2.1,2.1,0,0,0,.334.5,2.821,2.821,0,0,1-1.794,1c-.25,0-.375-.083-.375-.334a1.306,1.306,0,0,1,.667-1.043,1.762,1.762,0,0,1,.834-.125Zm4,1.168a1.35,1.35,0,0,1-.584-1c0-.417.292-.834.626-.834.209,0,.334.167.334.626a2.754,2.754,0,0,1-.375,1.21Zm-11.3.167a.537.537,0,0,1-.542-.584,1.034,1.034,0,0,1,1-1.084,2.19,2.19,0,0,1,1.5.626v.125a5.151,5.151,0,0,1-1.96.918Z" transform="translate(-11.224 -29.965)" fill-rule="evenodd"/>
    <path id="Path_104848" data-name="Path 104848" d="M15.829,121.038v-2.127H19.04V120.2h0a1.928,1.928,0,0,0-.5-.667,1.546,1.546,0,0,0-.626-.167A1.143,1.143,0,0,0,16.7,120.5a1.647,1.647,0,0,0,1.5,1.335,1.814,1.814,0,0,0,.876-.375v.751l.751.542V121.08a2.391,2.391,0,0,1,1.084-.626.269.269,0,0,1,.25.25,4.908,4.908,0,0,1-.542,1.335l.709.5a2.769,2.769,0,0,0,.417-1.335,1.322,1.322,0,0,0-1.084-1.418,1.481,1.481,0,0,0-.792.334v-1.251h2.461l-.417-.709H12.2l.417.709H13.2v2.294c0,.167.042.292.292.5.167.125,2.044,1.21,2.252,1.376a.425.425,0,0,1,.209.334,1.09,1.09,0,0,1-.125.334l.667.5a1.313,1.313,0,0,0,.334-.626.7.7,0,0,0-.375-.542l-1.835-1.126c-.626-.375-.709-.584-.709-.792v-2.211h1.126V120.5c0,.292-.083.417-.292.417-.125,0-.25-.042-.334-.042l.334.542a2.293,2.293,0,0,0,.667.125c.292.042.417-.083.417-.5Zm60.479-2.127h.584v1.168c0,.083-.042.125-.083.125-.125,0-.334-.209-.542-.209a.31.31,0,0,0-.25.25,1.32,1.32,0,0,0,.459.709l1.376,1.71.292-.292c-.542-.584-.876-.959-1.084-1.21a1.111,1.111,0,0,0,.542-.834v-1.46h1.376l-.417-.709H75.015a8.081,8.081,0,0,0-1.126-1.668,1.05,1.05,0,0,0-.667-.292c-.209,0-.459,0-.459.167,0,.083.042.167.334.751a1.774,1.774,0,0,1,.459-.083.579.579,0,0,1,.417.209,5.035,5.035,0,0,1,.709.918H72.012l.375.709h.542v1.043c0,.209-.417.459-.792.459a1.073,1.073,0,0,1-.626-.292c.292-.209.375-.375.375-.584a1.737,1.737,0,0,0-1.543-1.376,4.235,4.235,0,0,0-1.084.292l.375.751a3.648,3.648,0,0,1,1.251-.334c.209,0,.334.083.334.292,0,.375-.375.709-1.168.834-.167.042-.209.083-.209.125a2.722,2.722,0,0,0,.459.626,3.868,3.868,0,0,0,.918-.334,1.206,1.206,0,0,1,.167.584c0,.375-.375.667-.876.667-.459,0-.918-.417-1.293-1.168l-.292.167c.459.959,1.21,1.627,1.877,1.627a1.105,1.105,0,0,0,1.21-1.043,1.774,1.774,0,0,0-.083-.459V120.7a2.076,2.076,0,0,0,.709.25.71.71,0,0,0,.292-.042v1.21l.751.5v-3.754h.876v3.212l.751.5v-3.754h1Zm-8.926,0-.417-.709h-.792c-.125-1.293-.751-1.877-1.5-1.877a.982.982,0,0,0-1.043.876.972.972,0,0,0,.292.626l.417-.042v-.25a.562.562,0,0,1,.584-.542c.459,0,.876.5.918,1.251H59.29l.417.709H62.46v1.293h0a1.929,1.929,0,0,0-.5-.667,1.382,1.382,0,0,0-.626-.167,1.143,1.143,0,0,0-1.21,1.126,1.647,1.647,0,0,0,1.5,1.335,1.814,1.814,0,0,0,.876-.375v.751l.751.542v-1.668a2.391,2.391,0,0,1,1.084-.626.269.269,0,0,1,.25.25,4.908,4.908,0,0,1-.542,1.335l.709.5a2.769,2.769,0,0,0,.417-1.335,1.322,1.322,0,0,0-1.084-1.418,1.481,1.481,0,0,0-.792.334v-1.251h2.461v3.212l.751.5v-3.754h.876Zm-4.922,1.752a4.591,4.591,0,0,1-1.335.709c-.167,0-.334-.167-.334-.459a.848.848,0,0,1,.751-.792,1.152,1.152,0,0,1,.918.542Zm-5.172,2v-3.754h1l-.417-.709H38.144l.417.709h1.168v1.21c0,.042,0,.083-.042.083-.083,0-.292-.25-.459-.25-.125,0-.334.125-.334.292a1.722,1.722,0,0,0,.375.792l1.376,1.794.334-.292a14.5,14.5,0,0,1-1.084-1.251,2.57,2.57,0,0,0,.584-.584,1.145,1.145,0,0,0,.751.417,2.5,2.5,0,0,0,.5-.083,1.737,1.737,0,0,0,1.293.792,1.889,1.889,0,0,0,1.126-.5v.751l.751.5v-3.754h6.131v.375a.857.857,0,0,0-.792.876c0,.417.334.834,1.043,1.21a2.227,2.227,0,0,1-1.543.709c-.375,0-.5-.125-.5-.292,0-.25.25-.5.959-.5l-.334-.751a1.276,1.276,0,0,0-.709.125c-.042-.042-.083-.042-.125-.083l-.042-.334-.125.125V120.2c0-.25.209-.417.5-.417a2.2,2.2,0,0,1,.5.042l-.334-.667c-.083,0-.25-.042-.334-.042a.868.868,0,0,0-.876.542l-.125-.25H45.61l.417.709h.5a.889.889,0,0,0-.125.5,1.468,1.468,0,0,0,1.335,1.21,1.786,1.786,0,0,0,.959-.417,1.774,1.774,0,0,0,1.543,1.084,2.328,2.328,0,0,0,2.211-2.127,1.79,1.79,0,0,0-.667-1.126v-.459h3.212v.667H53.91c-.792,0-1.126.459-1.126.876,0,.5.292,1,1.084,2.169l.292-.25a2.556,2.556,0,0,1-.709-1.376c0-.417.167-.751.709-.751h.834V122l.751.5v-3.754h.876v3.212l.667.709Zm-8.968-2.377a1.3,1.3,0,0,0,.292.375,2.273,2.273,0,0,1-1.376.751c-.209,0-.292-.083-.292-.25a1.03,1.03,0,0,1,.5-.792,1.52,1.52,0,0,1,.626-.083Zm3.087.834a1,1,0,0,1-.459-.751c0-.292.209-.626.5-.626.125,0,.25.125.25.459a1.836,1.836,0,0,1-.292.918Zm-9.677-2.211H44.15v1.126a3.678,3.678,0,0,0-.626-.584,1.462,1.462,0,0,0-.667-.125,1.232,1.232,0,0,0-1.335,1.043,1.836,1.836,0,0,1-.417.083,1.729,1.729,0,0,1-.626-.083v-1.46h1.251Zm.918,2.377a.429.429,0,0,1-.417-.459.758.758,0,0,1,.751-.792,1.793,1.793,0,0,1,1.168.459v.083a4.035,4.035,0,0,1-1.5.709Zm-8.425-.125h1.293v1l.751.5v-3.754H37.1l-.417-.709H23.295l.417.709h2.753V120.2h-.042a1.928,1.928,0,0,0-.5-.667,1.382,1.382,0,0,0-.626-.167,1.143,1.143,0,0,0-1.21,1.126,1.607,1.607,0,0,0,1.5,1.335,1.814,1.814,0,0,0,.876-.375v.751l.751.542V121.08a2.391,2.391,0,0,1,1.084-.626.269.269,0,0,1,.25.25,4.908,4.908,0,0,1-.542,1.335l.709.5a2.769,2.769,0,0,0,.417-1.335,1.322,1.322,0,0,0-1.084-1.418,1.481,1.481,0,0,0-.792.334v-1.251h4.38v.667H30.552q-1,0-1,.876a1.878,1.878,0,0,0,1.877,1.919,1.477,1.477,0,0,0,.5-.083l.584,1.168.375-.209-.626-1.126a.566.566,0,0,0,.292-.459c0-.334-.709-.792-.918-.792a.235.235,0,0,0-.25.209c0,.25.125.292.125.417,0,.083-.25.25-.542.25a.792.792,0,0,1-.751-.834.682.682,0,0,1,.667-.751H32.3c.083,0,.125-.083.125-.209v-1.168H33.6v1.543h-.25a.2.2,0,0,0-.209.209,1.972,1.972,0,0,0,1,1.084.191.191,0,0,0,.209-.167v-.25Zm1.293-2.252v1.543H34.223v-1.543Zm-9.051,1.752a4.591,4.591,0,0,1-1.335.709c-.167,0-.334-.167-.334-.459a.848.848,0,0,1,.751-.792,1.152,1.152,0,0,1,.918.542Zm-7.424,0a4.591,4.591,0,0,1-1.335.709c-.167,0-.334-.167-.334-.459a.848.848,0,0,1,.751-.792,1.152,1.152,0,0,1,.918.542Z" transform="translate(-3.763 -57.128)" fill-rule="evenodd"/>
    <path id="Path_104849" data-name="Path 104849" d="M25.3,37.2A15.6,15.6,0,1,1,9.7,52.8,15.6,15.6,0,0,1,25.3,37.2Zm0,1.376A14.223,14.223,0,1,1,11.076,52.8,14.214,14.214,0,0,1,25.3,38.576Z" transform="translate(-2.306 -11.079)" fill-rule="evenodd"/>
    <path id="Path_104850" data-name="Path 104850" d="M113.8,37.2A15.6,15.6,0,1,1,98.2,52.8a15.6,15.6,0,0,1,15.6-15.6Zm0,1.376A14.223,14.223,0,1,1,99.576,52.8,14.214,14.214,0,0,1,113.8,38.576Z" transform="translate(-53.892 -11.079)" fill-rule="evenodd"/>
    <path id="Path_104851" data-name="Path 104851" d="M6.769,40.928c-.918.417-1.5-.876-.5-1.335l5.422-2.461,34.2-15.891,3.17-1.376c3.8-1.418,7.549-2.461,10.886-.876,5.172,2.628,4.38,10.344.042,13.973a.723.723,0,1,1-1-1.043c6.632-7.007,2.544-15.516-8.467-11.095-.709.292-1.293.5-1.96.792C36.007,27.289,23.536,33.128,11.023,38.968l-4.254,1.96Z" fill-rule="evenodd"/>
    <path id="Path_104852" data-name="Path 104852" d="M166.684,49.078a.715.715,0,1,1-.5-1.335l26.945-12.471L196.3,33.9c3.8-1.418,7.424-2.628,10.761-1.043,5.172,2.628,4.38,10.344.042,13.973a.723.723,0,1,1-1-1.043c6.59-7.132,2.544-15.641-8.342-10.886-.667.292-1.293.5-1.96.792-9.76,4.421-19.478,8.759-29.113,13.389Z" transform="translate(-93.221 -8.108)" fill-rule="evenodd"/>
  </g>
</svg>
